<svg width="42" height="43" fill="none" xmlns="http://www.w3.org/2000/svg"><g fill-rule="evenodd" clip-rule="evenodd"><path d="M32.375 5.27a1.594 1.594 0 0 1-1.273 1.86c-2.089.391-5.3 1.096-8.129 1.933-1.418.42-2.698.86-3.68 1.296a8.49 8.49 0 0 0-1.152.6c-.238.154-.33.25-.349.269-.005.005-.005.005-.001 0-.719 1.078-.928 1.76-.928 2.303 0 .545.21 1.226.928 2.304 1.26 1.89.88 4.318-.697 5.896-1.614 1.613-4.261 2.21-7.442 1.302a1.574 1.574 0 0 0-.192-.044c-.015.05-.031.122-.045.22-.104.772.143 2.141.823 3.591.672 1.435 1.616 2.62 2.575 3.194.457.274.877.385 1.266.372.38-.012.856-.148 1.43-.578.592-.445 1.193-.905 1.755-1.335.561-.43 1.084-.83 1.52-1.155.925-.688 1.798-1.297 2.609-1.694.808-.396 1.781-.696 2.817-.44 1.052.26 1.793.997 2.346 1.827 1.046 1.57 1.736 4.245.902 7.108-.855 2.932-3.237 5.838-7.943 7.977a1.594 1.594 0 0 1-1.32-2.902c4.06-1.845 5.663-4.118 6.203-5.968.56-1.918.054-3.625-.494-4.447a2.07 2.07 0 0 0-.369-.442.446.446 0 0 0-.074-.052l-.012-.006h-.002l-.005-.001-.016-.001a.525.525 0 0 0-.1.011c-.11.021-.28.075-.532.199-.52.255-1.187.703-2.106 1.388-.479.356-.947.715-1.463 1.111-.531.407-1.112.853-1.804 1.372-1.02.765-2.113 1.177-3.237 1.214-1.115.037-2.133-.3-3.007-.823-1.706-1.02-3.004-2.823-3.825-4.576-.815-1.737-1.314-3.754-1.095-5.372.11-.816.442-1.778 1.293-2.41.898-.668 1.986-.686 2.978-.403 2.397.685 3.734.087 4.312-.491.613-.614.632-1.373.299-1.874-.876-1.313-1.463-2.623-1.463-4.072 0-1.447.587-2.758 1.463-4.071.335-.503.822-.886 1.266-1.174A11.606 11.606 0 0 1 18 7.446c1.163-.516 2.591-1.002 4.069-1.44 2.962-.876 6.285-1.605 8.446-2.01a1.594 1.594 0 0 1 1.86 1.273zM9.504 22.88h-.001zm-.152.101c-.01.003-.016.003-.016.003s.005-.002.016-.003z" fill="#349D2B"/><path d="M39.04 11.543c.658.585.717 1.592.132 2.25l-6.31 7.1c-.366.552-.683 1.596-.187 2.883.52 1.35 2.042 3.228 5.974 5.043a1.594 1.594 0 1 1-1.336 2.894c-4.355-2.01-6.685-4.384-7.613-6.791-.933-2.424-.338-4.617.609-5.942l.05-.07 6.43-7.234a1.594 1.594 0 0 1 2.25-.133z" fill="#349D2B"/><path d="M21.246 39.031c9.682 0 17.531-7.849 17.531-17.531 0-9.682-7.849-17.531-17.53-17.531-9.683 0-17.532 7.849-17.532 17.531 0 9.682 7.849 17.531 17.531 17.531zm0 3.188c11.443 0 20.719-9.276 20.719-20.719 0-11.443-9.276-20.719-20.719-20.719C9.803.781.527 10.057.527 21.5c0 11.443 9.276 20.719 20.72 20.719z" fill="#fff"/></g></svg>