<svg width="43" height="20" fill="none" xmlns="http://www.w3.org/2000/svg"><g fill-rule="evenodd" clip-rule="evenodd"><path d="M11.712 5.373c1.25 1.197 2.018 2.94 2.018 5.12 0 .714-.58 1.294-1.295 1.294H6.061a1.295 1.295 0 1 1 0-2.59h4.938c-.202-.857-.6-1.496-1.078-1.953-.667-.638-1.56-.992-2.49-1.031-1.351.046-2.301.51-2.933 1.123-.613.632-1.077 1.582-1.123 2.934.04.929.393 1.822 1.031 2.49.663.692 1.708 1.219 3.248 1.219a1.295 1.295 0 0 1 0 2.59c-2.178 0-3.922-.769-5.119-2.019A6.38 6.38 0 0 1 .82 10.804a1.297 1.297 0 0 1-.038-.312c0-.072.001-.144.003-.215a6.685 6.685 0 0 1-.003-.183c0-1.598.574-3.223 1.754-4.457l.131-.133c.044-.044.088-.088.133-.13 1.234-1.182 2.859-1.755 4.457-1.755l.183.003c.071-.002.143-.003.215-.003.108 0 .212.013.312.038a6.38 6.38 0 0 1 3.746 1.716z" fill="#349D2B"/><path d="M8.55 4.914c0 .715-.579 1.295-1.294 1.295-1.375 0-2.312.503-2.917 1.184-.627.705-.968 1.682-.968 2.7 0 1.02.341 1.996.968 2.701.605.682 1.542 1.184 2.917 1.184a1.295 1.295 0 0 1 0 2.59c-2.078 0-3.732-.792-4.853-2.053-1.1-1.237-1.622-2.85-1.622-4.421 0-1.571.522-3.184 1.622-4.422C3.524 4.412 5.178 3.62 7.256 3.62c.715 0 1.295.58 1.295 1.295z" fill="#fff"/><path d="M8.55 4.914c0 .715-.579 1.295-1.294 1.295-1.375 0-2.312.503-2.917 1.184-.627.705-.968 1.682-.968 2.7 0 1.02.341 1.996.968 2.701.605.682 1.542 1.184 2.917 1.184a1.295 1.295 0 0 1 0 2.59c-2.078 0-3.732-.792-4.853-2.053-1.1-1.237-1.622-2.85-1.622-4.421 0-1.571.522-3.184 1.622-4.422C3.524 4.412 5.178 3.62 7.256 3.62c.715 0 1.295.58 1.295 1.295z" fill="#349D2B"/><path d="M40.2 5.373c1.25 1.197 2.019 2.94 2.019 5.12a1.295 1.295 0 0 1-2.59 0c0-1.54-.527-2.586-1.22-3.249-.666-.638-1.56-.992-2.489-1.031-1.352.046-2.302.51-2.934 1.123-.613.632-1.077 1.582-1.123 2.934.04.929.393 1.822 1.031 2.49.663.692 1.709 1.219 3.249 1.219a1.295 1.295 0 0 1 0 2.59c-2.18 0-3.923-.769-5.12-2.019a6.38 6.38 0 0 1-1.716-3.746 1.298 1.298 0 0 1-.037-.312 9 9 0 0 1 .002-.215 6.61 6.61 0 0 1-.002-.183c0-1.598.573-3.223 1.754-4.457a6.18 6.18 0 0 1 .13-.132c.044-.045.089-.089.134-.132 1.233-1.18 2.858-1.754 4.456-1.754.061 0 .123.001.184.003.071-.002.143-.003.215-.003.107 0 .212.013.312.038A6.38 6.38 0 0 1 40.2 5.373z" fill="#fff"/><path d="M37.04 4.914c0 .715-.58 1.295-1.296 1.295-1.375 0-2.311.503-2.917 1.184-.627.705-.968 1.682-.968 2.7 0 1.02.341 1.996.968 2.701.606.682 1.542 1.184 2.917 1.184a1.295 1.295 0 1 1 0 2.59c-2.078 0-3.731-.792-4.852-2.053-1.1-1.237-1.622-2.85-1.622-4.421 0-1.571.522-3.184 1.622-4.422 1.12-1.26 2.774-2.053 4.852-2.053.715 0 1.295.58 1.295 1.295z" fill="#fff"/><path d="M37.04 4.914c0 .715-.58 1.295-1.296 1.295-1.375 0-2.311.503-2.917 1.184-.627.705-.968 1.682-.968 2.7 0 1.02.341 1.996.968 2.701.606.682 1.542 1.184 2.917 1.184a1.295 1.295 0 1 1 0 2.59c-2.078 0-3.731-.792-4.852-2.053-1.1-1.237-1.622-2.85-1.622-4.421 0-1.571.522-3.184 1.622-4.422 1.12-1.26 2.774-2.053 4.852-2.053.715 0 1.295.58 1.295 1.295z" fill="#fff"/><path d="M31.288 14.814c-1.25-1.196-2.018-2.94-2.018-5.119a1.295 1.295 0 0 1 2.59 0c0 1.54.526 2.586 1.218 3.248.667.639 1.56.992 2.49 1.032 1.352-.046 2.302-.51 2.934-1.123.613-.632 1.077-1.582 1.123-2.934-.04-.93-.393-1.823-1.031-2.49-.663-.692-1.708-1.219-3.248-1.219a1.295 1.295 0 1 1 0-2.59c2.178 0 3.922.768 5.119 2.018a6.38 6.38 0 0 1 1.716 3.746c.025.1.038.205.038.312 0 .072-.001.144-.003.215.002.061.003.123.003.184 0 1.598-.574 3.223-1.754 4.456-.043.045-.087.09-.131.133a6.344 6.344 0 0 1-.133.131c-1.234 1.181-2.859 1.754-4.457 1.754-.061 0-.122 0-.184-.002a8.985 8.985 0 0 1-.214.002c-.108 0-.212-.013-.312-.038a6.38 6.38 0 0 1-3.746-1.716z" fill="#fff"/><path d="M34.45 15.273c0-.715.579-1.294 1.294-1.294 1.375 0 2.312-.503 2.917-1.184.627-.706.968-1.682.968-2.701 0-1.02-.341-1.996-.968-2.701-.605-.681-1.542-1.184-2.917-1.184a1.295 1.295 0 0 1 0-2.59c2.078 0 3.732.792 4.853 2.053 1.1 1.238 1.622 2.85 1.622 4.422 0 1.57-.522 3.184-1.622 4.421-1.121 1.261-2.775 2.053-4.853 2.053-.715 0-1.295-.58-1.295-1.295z" fill="#fff"/><path d="M34.45 15.273c0-.715.579-1.294 1.294-1.294 1.375 0 2.312-.503 2.917-1.184.627-.706.968-1.682.968-2.701 0-1.02-.341-1.996-.968-2.701-.605-.681-1.542-1.184-2.917-1.184a1.295 1.295 0 0 1 0-2.59c2.078 0 3.732.792 4.853 2.053 1.1 1.238 1.622 2.85 1.622 4.422 0 1.57-.522 3.184-1.622 4.421-1.121 1.261-2.775 2.053-4.853 2.053-.715 0-1.295-.58-1.295-1.295zM21.314 3.605c1.73-.038 3.506.652 5.046 2.192A1.295 1.295 0 1 1 24.53 7.63c-1.09-1.09-2.2-1.456-3.159-1.435-.923.02-1.805.402-2.49 1.031-.923.988-1.267 1.988-1.28 2.869.013.88.357 1.88 1.28 2.868.685.63 1.567 1.011 2.49 1.032.958.02 2.07-.346 3.159-1.435a1.295 1.295 0 1 1 1.831 1.831c-1.54 1.54-3.317 2.23-5.046 2.193a6.38 6.38 0 0 1-3.863-1.435 1.3 1.3 0 0 1-.247-.194 9.016 9.016 0 0 1-.15-.154 6.618 6.618 0 0 1-.132-.128c-1.13-1.13-1.874-2.684-1.91-4.392a6.114 6.114 0 0 1-.002-.186l.001-.187c.037-1.707.781-3.262 1.911-4.391.043-.044.087-.086.131-.128l.15-.154a1.3 1.3 0 0 1 .248-.194 6.38 6.38 0 0 1 3.863-1.435z" fill="#fff"/><path d="M18.753 5.516a1.295 1.295 0 0 1 0 1.831c-.973.973-1.28 1.99-1.226 2.9.056.942.505 1.874 1.226 2.594.72.72 1.652 1.17 2.594 1.226.91.053 1.927-.253 2.9-1.226a1.295 1.295 0 1 1 1.83 1.832c-1.469 1.469-3.198 2.078-4.882 1.979-1.653-.097-3.163-.869-4.274-1.98-1.11-1.11-1.882-2.62-1.98-4.273-.098-1.684.51-3.414 1.98-4.883a1.295 1.295 0 0 1 1.832 0z" fill="#fff"/><path d="M18.753 5.516a1.295 1.295 0 0 1 0 1.831c-.973.973-1.28 1.99-1.226 2.9.056.942.505 1.874 1.226 2.594.72.72 1.652 1.17 2.594 1.226.91.053 1.927-.253 2.9-1.226a1.295 1.295 0 1 1 1.83 1.832c-1.469 1.469-3.198 2.078-4.882 1.979-1.653-.097-3.163-.869-4.274-1.98-1.11-1.11-1.882-2.62-1.98-4.273-.098-1.684.51-3.414 1.98-4.883a1.295 1.295 0 0 1 1.832 0z" fill="#fff"/></g></svg>