<svg width="121" height="120" fill="none" xmlns="http://www.w3.org/2000/svg"><g opacity=".6" filter="url(#a)" fill-rule="evenodd" clip-rule="evenodd"><path d="M39.667 49.647c2.74 2.67 4.423 6.563 4.423 11.425 0 1.596-1.27 2.89-2.838 2.89h-13.97c-1.567 0-2.838-1.294-2.838-2.89s1.27-2.89 2.838-2.89h10.822c-.441-1.914-1.315-3.34-2.361-4.36-1.462-1.424-3.42-2.213-5.456-2.301-2.963.102-5.045 1.138-6.43 2.507-1.344 1.41-2.36 3.53-2.46 6.547.086 2.074.86 4.068 2.26 5.557 1.452 1.545 3.742 2.72 7.117 2.72 1.568 0 2.838 1.295 2.838 2.89 0 1.597-1.27 2.89-2.838 2.89-4.774 0-8.596-1.714-11.218-4.503-2.204-2.345-3.442-5.325-3.76-8.36a2.945 2.945 0 0 1-.084-.697c0-.161.002-.321.006-.48a15.11 15.11 0 0 1-.006-.41c0-3.566 1.257-7.193 3.844-9.945.095-.1.19-.2.288-.297.095-.1.193-.197.291-.293 2.703-2.635 6.264-3.914 9.766-3.914.134 0 .268.002.402.005.156-.004.313-.005.471-.005.236 0 .465.029.684.084 2.981.324 5.907 1.586 8.21 3.83z" fill="#88A728"/><path d="M32.74 48.623c0 1.596-1.271 2.89-2.839 2.89-3.013 0-5.065 1.122-6.392 2.642-1.373 1.574-2.12 3.753-2.12 6.028 0 2.274.747 4.454 2.12 6.027 1.327 1.52 3.379 2.643 6.392 2.643 1.568 0 2.838 1.294 2.838 2.89s-1.27 2.89-2.837 2.89c-4.554 0-8.178-1.768-10.635-4.583-2.41-2.761-3.554-6.361-3.554-9.867 0-3.506 1.144-7.106 3.554-9.868 2.457-2.814 6.08-4.582 10.634-4.582 1.568 0 2.838 1.294 2.838 2.89z" fill="#212420"/><path d="M32.74 48.623c0 1.596-1.271 2.89-2.839 2.89-3.013 0-5.065 1.122-6.392 2.642-1.373 1.574-2.12 3.753-2.12 6.028 0 2.274.747 4.454 2.12 6.027 1.327 1.52 3.379 2.643 6.392 2.643 1.568 0 2.838 1.294 2.838 2.89s-1.27 2.89-2.837 2.89c-4.554 0-8.178-1.768-10.635-4.583-2.41-2.761-3.554-6.361-3.554-9.867 0-3.506 1.144-7.106 3.554-9.868 2.457-2.814 6.08-4.582 10.634-4.582 1.568 0 2.838 1.294 2.838 2.89z" fill="#88A728"/><path d="M102.098 49.647c2.739 2.67 4.423 6.563 4.423 11.425 0 1.596-1.271 2.89-2.838 2.89-1.567 0-2.838-1.294-2.838-2.89 0-3.437-1.154-5.77-2.671-7.25-1.462-1.424-3.42-2.213-5.456-2.3-2.963.102-5.045 1.137-6.43 2.506-1.344 1.41-2.36 3.53-2.461 6.547.087 2.075.86 4.068 2.26 5.557 1.453 1.545 3.743 2.72 7.118 2.72 1.567 0 2.838 1.295 2.838 2.89 0 1.597-1.27 2.89-2.838 2.89-4.774 0-8.596-1.714-11.218-4.503-2.204-2.345-3.443-5.325-3.761-8.36a2.945 2.945 0 0 1-.083-.697c0-.16.002-.32.006-.48a15.132 15.132 0 0 1-.006-.41c0-3.566 1.257-7.193 3.844-9.945.094-.1.19-.2.287-.296.096-.1.193-.198.292-.294 2.703-2.635 6.264-3.914 9.766-3.914.134 0 .268.002.403.005.155-.003.312-.005.47-.005.236 0 .465.029.684.084 2.98.324 5.906 1.585 8.209 3.83z" fill="#212420"/><path d="M95.17 48.623c0 1.596-1.27 2.89-2.838 2.89-3.013 0-5.065 1.122-6.392 2.642-1.374 1.574-2.121 3.753-2.121 6.028 0 2.274.747 4.454 2.12 6.027 1.328 1.52 3.38 2.643 6.393 2.643 1.567 0 2.838 1.294 2.838 2.89s-1.27 2.89-2.838 2.89c-4.554 0-8.177-1.768-10.634-4.583-2.41-2.761-3.555-6.361-3.555-9.867 0-3.506 1.144-7.106 3.555-9.868 2.457-2.814 6.08-4.582 10.634-4.582 1.567 0 2.838 1.294 2.838 2.89z" fill="#212420"/><path d="M95.17 48.623c0 1.596-1.27 2.89-2.838 2.89-3.013 0-5.065 1.122-6.392 2.642-1.374 1.574-2.121 3.753-2.121 6.028 0 2.274.747 4.454 2.12 6.027 1.328 1.52 3.38 2.643 6.393 2.643 1.567 0 2.838 1.294 2.838 2.89s-1.27 2.89-2.838 2.89c-4.554 0-8.177-1.768-10.634-4.583-2.41-2.761-3.555-6.361-3.555-9.867 0-3.506 1.144-7.106 3.555-9.868 2.457-2.814 6.08-4.582 10.634-4.582 1.567 0 2.838 1.294 2.838 2.89z" fill="#212420"/><path d="M82.566 70.718c-2.74-2.67-4.423-6.562-4.423-11.425 0-1.596 1.27-2.89 2.838-2.89 1.567 0 2.838 1.294 2.838 2.89 0 3.438 1.154 5.77 2.672 7.25 1.461 1.425 3.419 2.213 5.455 2.301 2.963-.102 5.045-1.137 6.43-2.506 1.344-1.41 2.361-3.531 2.461-6.548-.087-2.074-.86-4.068-2.26-5.556-1.453-1.546-3.743-2.721-7.118-2.721-1.567 0-2.838-1.294-2.838-2.89s1.27-2.89 2.838-2.89c4.774 0 8.596 1.714 11.218 4.504 2.204 2.345 3.443 5.324 3.761 8.36.054.223.083.456.083.697 0 .16-.002.32-.006.479.004.137.006.273.006.41 0 3.566-1.256 7.193-3.844 9.946-.094.1-.19.199-.287.296-.096.1-.193.197-.292.293-2.703 2.635-6.264 3.915-9.766 3.915-.134 0-.268-.002-.403-.006-.155.004-.312.006-.47.006-.236 0-.465-.03-.684-.085-2.98-.324-5.906-1.585-8.21-3.83z" fill="#212420"/><path d="M89.495 71.743c0-1.596 1.27-2.89 2.837-2.89 3.014 0 5.066-1.122 6.393-2.643 1.373-1.573 2.121-3.753 2.121-6.027 0-2.275-.748-4.454-2.121-6.028-1.327-1.52-3.379-2.642-6.393-2.642-1.567 0-2.837-1.294-2.837-2.89s1.27-2.89 2.837-2.89c4.554 0 8.178 1.768 10.635 4.582 2.41 2.762 3.554 6.362 3.554 9.868 0 3.505-1.144 7.106-3.554 9.867-2.457 2.815-6.08 4.583-10.635 4.583-1.567 0-2.837-1.294-2.837-2.89z" fill="#212420"/><path d="M89.495 71.743c0-1.596 1.27-2.89 2.837-2.89 3.014 0 5.066-1.122 6.393-2.643 1.373-1.573 2.121-3.753 2.121-6.027 0-2.275-.748-4.454-2.121-6.028-1.327-1.52-3.379-2.642-6.393-2.642-1.567 0-2.837-1.294-2.837-2.89s1.27-2.89 2.837-2.89c4.554 0 8.178 1.768 10.635 4.582 2.41 2.762 3.554 6.362 3.554 9.868 0 3.505-1.144 7.106-3.554 9.867-2.457 2.815-6.08 4.583-10.635 4.583-1.567 0-2.837-1.294-2.837-2.89zM60.708 45.7c3.791-.084 7.684 1.456 11.06 4.894a2.928 2.928 0 0 1 0 4.087 2.802 2.802 0 0 1-4.013 0c-2.387-2.43-4.823-3.249-6.923-3.202-2.023.045-3.955.898-5.456 2.302-2.024 2.205-2.777 4.437-2.806 6.402.029 1.965.782 4.196 2.806 6.402 1.501 1.404 3.433 2.257 5.456 2.302 2.1.046 4.536-.772 6.923-3.202a2.802 2.802 0 0 1 4.013 0 2.928 2.928 0 0 1 0 4.087c-3.376 3.438-7.269 4.978-11.06 4.893-3.187-.07-6.131-1.286-8.464-3.203a2.85 2.85 0 0 1-.542-.433 20.268 20.268 0 0 1-.33-.343c-.097-.094-.193-.189-.288-.285-2.476-2.522-4.106-5.992-4.187-9.801a13.778 13.778 0 0 1-.003-.417c-.001-.14 0-.278.003-.417.081-3.81 1.711-7.279 4.187-9.8.095-.097.191-.193.288-.286.108-.115.218-.23.33-.344.166-.17.349-.314.542-.432 2.333-1.918 5.277-3.133 8.464-3.204z" fill="#212420"/><path d="M55.096 49.966a2.928 2.928 0 0 1 0 4.087c-2.13 2.17-2.802 4.442-2.685 6.472.121 2.102 1.106 4.182 2.685 5.79 1.58 1.608 3.622 2.61 5.685 2.734 1.994.12 4.224-.564 6.355-2.734a2.802 2.802 0 0 1 4.013 0 2.928 2.928 0 0 1 0 4.087c-3.22 3.28-7.01 4.639-10.701 4.418-3.622-.217-6.93-1.94-9.365-4.418-2.434-2.48-4.125-5.849-4.338-9.537-.217-3.76 1.118-7.62 4.338-10.899a2.802 2.802 0 0 1 4.014 0z" fill="#212420"/><path d="M55.096 49.966a2.928 2.928 0 0 1 0 4.087c-2.13 2.17-2.802 4.442-2.685 6.472.121 2.102 1.106 4.182 2.685 5.79 1.58 1.608 3.622 2.61 5.685 2.734 1.994.12 4.224-.564 6.355-2.734a2.802 2.802 0 0 1 4.013 0 2.928 2.928 0 0 1 0 4.087c-3.22 3.28-7.01 4.639-10.701 4.418-3.622-.217-6.93-1.94-9.365-4.418-2.434-2.48-4.125-5.849-4.338-9.537-.217-3.76 1.118-7.62 4.338-10.899a2.802 2.802 0 0 1 4.014 0z" fill="#212420"/></g><path fill-rule="evenodd" clip-rule="evenodd" d="M36.354 47.937c2.892 2.815 4.67 6.919 4.67 12.045 0 1.682-1.342 3.047-2.997 3.047h-14.75c-1.654 0-2.996-1.365-2.996-3.047 0-1.683 1.342-3.047 2.996-3.047h11.427c-.467-2.018-1.389-3.52-2.494-4.596-1.543-1.502-3.61-2.334-5.76-2.427-3.128.108-5.326 1.2-6.788 2.643-1.42 1.487-2.492 3.722-2.599 6.903.092 2.187.91 4.289 2.387 5.858 1.533 1.63 3.951 2.869 7.515 2.869 1.654 0 2.996 1.364 2.996 3.047 0 1.682-1.341 3.047-2.996 3.047-5.04 0-9.076-1.808-11.844-4.749-2.327-2.472-3.635-5.613-3.97-8.814a3.104 3.104 0 0 1-.088-.734c0-.17.001-.339.005-.506a15.932 15.932 0 0 1-.005-.432c0-3.76 1.326-7.583 4.058-10.486.1-.105.2-.21.303-.312.101-.105.204-.208.308-.309 2.854-2.778 6.614-4.127 10.311-4.127.141 0 .283.002.424.006.165-.004.33-.006.498-.006.249 0 .49.03.722.089 3.147.342 6.236 1.671 8.667 4.038z" fill="#88A728"/><path fill-rule="evenodd" clip-rule="evenodd" d="M29.04 46.857c0 1.682-1.342 3.047-2.997 3.047-3.182 0-5.348 1.183-6.749 2.785-1.45 1.66-2.24 3.958-2.24 6.355 0 2.398.79 4.696 2.24 6.355 1.401 1.603 3.567 2.786 6.749 2.786 1.655 0 2.996 1.364 2.996 3.047 0 1.682-1.341 3.047-2.996 3.047-4.808 0-8.634-1.864-11.228-4.832-2.544-2.911-3.752-6.707-3.752-10.403 0-3.696 1.208-7.492 3.752-10.403 2.594-2.967 6.42-4.831 11.228-4.831 1.655 0 2.996 1.364 2.996 3.047z" fill="#212420"/><path fill-rule="evenodd" clip-rule="evenodd" d="M29.04 46.857c0 1.682-1.342 3.047-2.997 3.047-3.182 0-5.348 1.183-6.749 2.785-1.45 1.66-2.24 3.958-2.24 6.355 0 2.398.79 4.696 2.24 6.355 1.401 1.603 3.567 2.786 6.749 2.786 1.655 0 2.996 1.364 2.996 3.047 0 1.682-1.341 3.047-2.996 3.047-4.808 0-8.634-1.864-11.228-4.832-2.544-2.911-3.752-6.707-3.752-10.403 0-3.696 1.208-7.492 3.752-10.403 2.594-2.967 6.42-4.831 11.228-4.831 1.655 0 2.996 1.364 2.996 3.047z" fill="#88A728"/><path fill-rule="evenodd" clip-rule="evenodd" d="M102.269 47.937c2.892 2.815 4.669 6.919 4.669 12.045 0 1.682-1.341 3.047-2.996 3.047s-2.996-1.365-2.996-3.047c0-3.624-1.219-6.083-2.821-7.643-1.543-1.502-3.61-2.333-5.76-2.427-3.128.108-5.327 1.2-6.789 2.643-1.419 1.487-2.492 3.723-2.598 6.903.092 2.187.909 4.289 2.386 5.858 1.534 1.63 3.952 2.869 7.515 2.869 1.655 0 2.996 1.364 2.996 3.047 0 1.682-1.34 3.047-2.996 3.047-5.04 0-9.075-1.808-11.844-4.749-2.327-2.472-3.634-5.614-3.97-8.814a3.101 3.101 0 0 1-.088-.734c0-.17.002-.338.006-.506a15.967 15.967 0 0 1-.006-.432c0-3.76 1.327-7.583 4.058-10.486.1-.105.2-.21.303-.312.102-.105.204-.208.309-.309 2.853-2.778 6.613-4.127 10.31-4.127.142 0 .284.002.426.006.164-.004.33-.006.496-.006.25 0 .49.03.722.089 3.148.342 6.236 1.671 8.668 4.038z" fill="#212420"/><path fill-rule="evenodd" clip-rule="evenodd" d="M94.953 46.857c0 1.682-1.341 3.047-2.996 3.047-3.182 0-5.348 1.183-6.749 2.785-1.45 1.66-2.24 3.958-2.24 6.355 0 2.398.79 4.696 2.24 6.355 1.401 1.603 3.567 2.786 6.749 2.786 1.655 0 2.996 1.364 2.996 3.047 0 1.682-1.341 3.047-2.996 3.047-4.808 0-8.634-1.864-11.228-4.832-2.544-2.911-3.752-6.707-3.752-10.403 0-3.696 1.208-7.492 3.752-10.403 2.594-2.967 6.42-4.831 11.228-4.831 1.655 0 2.996 1.364 2.996 3.047z" fill="#212420"/><path fill-rule="evenodd" clip-rule="evenodd" d="M94.953 46.857c0 1.682-1.341 3.047-2.996 3.047-3.182 0-5.348 1.183-6.749 2.785-1.45 1.66-2.24 3.958-2.24 6.355 0 2.398.79 4.696 2.24 6.355 1.401 1.603 3.567 2.786 6.749 2.786 1.655 0 2.996 1.364 2.996 3.047 0 1.682-1.341 3.047-2.996 3.047-4.808 0-8.634-1.864-11.228-4.832-2.544-2.911-3.752-6.707-3.752-10.403 0-3.696 1.208-7.492 3.752-10.403 2.594-2.967 6.42-4.831 11.228-4.831 1.655 0 2.996 1.364 2.996 3.047z" fill="#212420"/><path fill-rule="evenodd" clip-rule="evenodd" d="M81.646 70.152c-2.892-2.816-4.67-6.919-4.67-12.045 0-1.683 1.342-3.047 2.997-3.047 1.654 0 2.996 1.364 2.996 3.047 0 3.624 1.218 6.083 2.82 7.643 1.544 1.502 3.61 2.333 5.76 2.426 3.129-.108 5.327-1.2 6.79-2.642 1.418-1.488 2.491-3.723 2.598-6.904-.092-2.186-.909-4.288-2.386-5.858-1.534-1.629-3.952-2.868-7.516-2.868-1.654 0-2.996-1.364-2.996-3.047s1.341-3.047 2.996-3.047c5.04 0 9.076 1.808 11.844 4.749 2.327 2.472 3.635 5.613 3.971 8.814.057.235.087.48.087.734 0 .17-.001.338-.005.505.004.145.006.288.006.432 0 3.76-1.327 7.584-4.059 10.486-.099.106-.2.21-.303.313-.101.104-.204.207-.308.309-2.854 2.778-6.614 4.127-10.311 4.127-.142 0-.283-.002-.425-.006-.165.004-.33.006-.497.006-.249 0-.49-.031-.721-.09-3.148-.341-6.237-1.67-8.668-4.037z" fill="#212420"/><path fill-rule="evenodd" clip-rule="evenodd" d="M88.96 71.232c0-1.683 1.342-3.047 2.997-3.047 3.182 0 5.348-1.183 6.749-2.786 1.45-1.659 2.239-3.957 2.239-6.355 0-2.397-.789-4.695-2.239-6.354-1.401-1.603-3.567-2.786-6.749-2.786-1.655 0-2.996-1.364-2.996-3.047s1.341-3.047 2.996-3.047c4.808 0 8.634 1.864 11.228 4.831 2.544 2.912 3.752 6.707 3.752 10.403 0 3.697-1.208 7.492-3.752 10.404-2.594 2.967-6.42 4.83-11.228 4.83-1.655 0-2.996-1.363-2.996-3.046z" fill="#212420"/><path fill-rule="evenodd" clip-rule="evenodd" d="M88.96 71.232c0-1.683 1.342-3.047 2.997-3.047 3.182 0 5.348-1.183 6.749-2.786 1.45-1.659 2.239-3.957 2.239-6.355 0-2.397-.789-4.695-2.239-6.354-1.401-1.603-3.567-2.786-6.749-2.786-1.655 0-2.996-1.364-2.996-3.047s1.341-3.047 2.996-3.047c4.808 0 8.634 1.864 11.228 4.831 2.544 2.912 3.752 6.707 3.752 10.403 0 3.697-1.208 7.492-3.752 10.404-2.594 2.967-6.42 4.83-11.228 4.83-1.655 0-2.996-1.363-2.996-3.046zM58.568 43.776c4.003-.09 8.113 1.534 11.677 5.159a3.084 3.084 0 0 1 0 4.309 2.96 2.96 0 0 1-4.237 0c-2.52-2.563-5.091-3.425-7.309-3.376-2.136.047-4.175.946-5.76 2.426-2.137 2.326-2.932 4.678-2.963 6.75.03 2.072.826 4.424 2.963 6.75 1.585 1.48 3.624 2.38 5.76 2.427 2.218.049 4.79-.814 7.31-3.376a2.96 2.96 0 0 1 4.236 0 3.084 3.084 0 0 1 0 4.309c-3.564 3.624-7.674 5.248-11.677 5.159-3.364-.075-6.473-1.356-8.936-3.377a3.007 3.007 0 0 1-.572-.457 21.75 21.75 0 0 1-.348-.361 15.7 15.7 0 0 1-.304-.301c-2.615-2.66-4.335-6.317-4.422-10.333a14.962 14.962 0 0 1-.002-.44c-.002-.146 0-.293.002-.44.087-4.016 1.807-7.673 4.422-10.332.1-.102.201-.202.304-.301.114-.121.23-.242.348-.362a3.01 3.01 0 0 1 .572-.456c2.463-2.022 5.572-3.303 8.936-3.377z" fill="#212420"/><path fill-rule="evenodd" clip-rule="evenodd" d="M52.644 48.273a3.084 3.084 0 0 1 0 4.309c-2.25 2.288-2.96 4.682-2.836 6.823.129 2.216 1.168 4.408 2.836 6.104 1.667 1.695 3.823 2.753 6.001 2.883 2.106.126 4.46-.595 6.71-2.883a2.961 2.961 0 0 1 4.237 0 3.084 3.084 0 0 1 0 4.309c-3.4 3.457-7.401 4.89-11.298 4.657-3.824-.228-7.318-2.044-9.888-4.657-2.57-2.614-4.355-6.166-4.58-10.055-.229-3.963 1.18-8.033 4.58-11.49a2.961 2.961 0 0 1 4.238 0z" fill="#212420"/><path fill-rule="evenodd" clip-rule="evenodd" d="M52.644 48.273a3.084 3.084 0 0 1 0 4.309c-2.25 2.288-2.96 4.682-2.836 6.823.129 2.216 1.168 4.408 2.836 6.104 1.667 1.695 3.823 2.753 6.001 2.883 2.106.126 4.46-.595 6.71-2.883a2.961 2.961 0 0 1 4.237 0 3.084 3.084 0 0 1 0 4.309c-3.4 3.457-7.401 4.89-11.298 4.657-3.824-.228-7.318-2.044-9.888-4.657-2.57-2.614-4.355-6.166-4.58-10.055-.229-3.963 1.18-8.033 4.58-11.49a2.961 2.961 0 0 1 4.238 0z" fill="#212420"/><defs><filter id="a" x="-8.747" y="-9.803" width="139.727" height="141.784" filterUnits="userSpaceOnUse" color-interpolation-filters="sRGB"><feFlood flood-opacity="0" result="BackgroundImageFix"/><feBlend in="SourceGraphic" in2="BackgroundImageFix" result="shape"/><feGaussianBlur stdDeviation="6.991" result="effect1_foregroundBlur_1042_2403"/></filter></defs></svg>