<svg width="46" height="43" fill="none" xmlns="http://www.w3.org/2000/svg"><g fill-rule="evenodd" clip-rule="evenodd"><path d="M13.754 6.475c-2.319 1.603-3.795 3.93-3.795 7.056a1.594 1.594 0 1 1-3.188 0c0-4.31 2.11-7.562 5.17-9.678C14.954 1.77 18.876.781 22.71.781c3.833 0 7.755.99 10.768 3.072 3.06 2.116 5.17 5.368 5.17 9.678a1.594 1.594 0 1 1-3.188 0c0-3.127-1.476-5.453-3.795-7.056-2.367-1.636-5.616-2.506-8.955-2.506-3.339 0-6.589.87-8.955 2.506z" fill="#349D2B"/><path d="M31.664 36.525c2.319-1.603 3.795-3.93 3.795-7.056a1.594 1.594 0 1 1 3.188 0c0 4.31-2.11 7.562-5.17 9.678-3.013 2.083-6.935 3.072-10.768 3.072-3.833 0-7.755-.99-10.768-3.072-3.06-2.116-5.17-5.367-5.17-9.678a1.594 1.594 0 1 1 3.188 0c0 3.127 1.476 5.453 3.795 7.056 2.366 1.636 5.616 2.506 8.955 2.506 3.339 0 6.588-.87 8.955-2.506z" fill="#fff"/><path d="M35.926 20.373a1.594 1.594 0 0 1 2.254 0l6.375 6.375a1.594 1.594 0 0 1-2.254 2.254l-5.248-5.248-5.248 5.248a1.594 1.594 0 0 1-2.254-2.254l6.375-6.375z" fill="#fff"/><path d="M7.238 22.627a1.594 1.594 0 0 0 2.254 0l6.375-6.375a1.594 1.594 0 0 0-2.254-2.254l-5.248 5.248-5.248-5.248a1.594 1.594 0 0 0-2.254 2.254l6.375 6.375z" fill="#349D2B"/></g></svg>